<svg xmlns="http://www.w3.org/2000/svg" viewBox="0 0 512 512" role="img" aria-hidden="true"><defs><linearGradient id="stemg" gradientUnits="userSpaceOnUse" x1="70" y1="70" x2="450" y2="450">
      <stop offset="0" style="stop-color:var(--g0,#141a2e)"/>
      <stop offset="0.55" style="stop-color:var(--g1,#2d3f8f)"/>
      <stop offset="1" style="stop-color:var(--g2,#4fa39a)"/>
    </linearGradient><mask id="stemm" maskUnits="userSpaceOnUse" x="0" y="0" width="512" height="512"><rect x="-12.4" y="-12.4" width="24.8" height="24.8" fill="#fff" transform="translate(12.0 12.0) rotate(-0.0)"/><rect x="-12.4" y="-12.4" width="24.8" height="24.8" fill="#fff" transform="translate(36.0 12.0) rotate(-0.0)"/><rect x="-12.4" y="-12.4" width="24.8" height="24.8" fill="#fff" transform="translate(60.0 12.0) rotate(-0.0)"/><rect x="-12.4" y="-12.4" width="24.8" height="24.8" fill="#fff" transform="translate(84.0 12.0) rotate(0.0)"/><rect x="-12.4" y="-12.4" width="24.8" height="24.8" fill="#fff" transform="translate(108.0 12.0) rotate(-0.0)"/><rect x="-12.4" y="-12.4" width="24.8" height="24.8" fill="#fff" transform="translate(132.0 12.0) rotate(-0.0)"/><rect x="-12.4" y="-12.4" width="24.8" height="24.8" fill="#fff" transform="translate(156.0 12.0) rotate(0.0)"/><rect x="-12.4" y="-12.4" width="24.8" height="24.8" fill="#fff" transform="translate(180.0 12.0) rotate(-0.0)"/><rect x="-12.4" y="-12.4" width="24.8" height="24.8" fill="#fff" transform="translate(204.0 12.0) rotate(-0.0)"/><rect x="-12.4" y="-12.4" width="24.8" height="24.8" fill="#fff" transform="translate(228.0 12.0) rotate(-0.0)"/><rect x="-12.4" y="-12.4" width="24.8" height="24.8" fill="#fff" transform="translate(252.0 12.0) rotate(0.0)"/><rect x="-12.4" y="-12.4" width="24.8" height="24.8" fill="#fff" transform="translate(276.0 12.0) rotate(0.0)"/><rect x="-12.4" y="-12.4" width="24.8" height="24.8" fill="#fff" transform="translate(300.0 12.0) rotate(0.0)"/><rect x="-12.4" y="-12.4" width="24.8" height="24.8" fill="#fff" transform="translate(324.0 12.0) rotate(0.0)"/><rect x="-12.4" y="-12.4" width="24.8" height="24.8" fill="#fff" transform="translate(348.0 12.0) rotate(-0.0)"/><rect x="-11.8" y="-11.8" width="23.6" height="23.6" fill="#fff" transform="translate(372.2 12.4) rotate(0.8)"/><rect x="-11.4" y="-11.4" width="22.8" height="22.8" fill="#fff" transform="translate(396.2 13.0) rotate(-3.1)"/><rect x="-11.0" y="-11.0" width="22.0" height="22.0" fill="#fff" transform="translate(420.7 12.1) rotate(4.8)"/><rect x="-10.6" y="-10.6" width="21.2" height="21.2" fill="#fff" transform="translate(444.7 12.2) rotate(3.8)"/><rect x="-10.2" y="-10.2" width="20.3" height="20.3" fill="#fff" transform="translate(470.5 12.4) rotate(8.1)"/><rect x="-9.7" y="-9.7" width="19.5" height="19.5" fill="#fff" transform="translate(492.2 15.2) rotate(-8.4)"/><rect x="-9.3" y="-9.3" width="18.6" height="18.6" fill="#fff" transform="translate(518.1 12.9) rotate(1.5)"/><rect x="-12.4" y="-12.4" width="24.8" height="24.8" fill="#fff" transform="translate(12.0 36.0) rotate(0.0)"/><rect x="-12.4" y="-12.4" width="24.8" height="24.8" fill="#fff" transform="translate(36.0 36.0) rotate(-0.0)"/><rect x="-12.4" y="-12.4" width="24.8" height="24.8" fill="#fff" transform="translate(60.0 36.0) rotate(-0.0)"/><rect x="-12.4" y="-12.4" width="24.8" height="24.8" fill="#fff" transform="translate(84.0 36.0) rotate(-0.0)"/><rect x="-12.4" y="-12.4" width="24.8" height="24.8" fill="#fff" transform="translate(108.0 36.0) rotate(-0.0)"/><rect x="-12.4" y="-12.4" width="24.8" height="24.8" fill="#fff" transform="translate(132.0 36.0) rotate(-0.0)"/><rect x="-12.4" y="-12.4" width="24.8" height="24.8" fill="#fff" transform="translate(156.0 36.0) rotate(-0.0)"/><rect x="-12.4" y="-12.4" width="24.8" height="24.8" fill="#fff" transform="translate(180.0 36.0) rotate(-0.0)"/><rect x="-12.4" y="-12.4" width="24.8" height="24.8" fill="#fff" transform="translate(204.0 36.0) rotate(0.0)"/><rect x="-12.4" y="-12.4" width="24.8" height="24.8" fill="#fff" transform="translate(228.0 36.0) rotate(-0.0)"/><rect x="-12.4" y="-12.4" width="24.8" height="24.8" fill="#fff" transform="translate(252.0 36.0) rotate(-0.0)"/><rect x="-12.4" y="-12.4" width="24.8" height="24.8" fill="#fff" transform="translate(276.0 36.0) rotate(-0.0)"/><rect x="-12.4" y="-12.4" width="24.8" height="24.8" fill="#fff" transform="translate(300.0 36.0) rotate(0.0)"/><rect x="-12.4" y="-12.4" width="24.8" height="24.8" fill="#fff" transform="translate(324.0 36.0) rotate(0.0)"/><rect x="-11.8" y="-11.8" width="23.6" height="23.6" fill="#fff" transform="translate(348.3 36.2) rotate(0.9)"/><rect x="-11.4" y="-11.4" width="22.8" height="22.8" fill="#fff" transform="translate(373.1 36.3) rotate(-2.8)"/><rect x="-11.0" y="-11.0" width="22.0" height="22.0" fill="#fff" transform="translate(397.5 37.1) rotate(-2.4)"/><rect x="-10.6" y="-10.6" width="21.2" height="21.2" fill="#fff" transform="translate(421.8 36.2) rotate(-4.4)"/><rect x="-10.2" y="-10.2" width="20.3" height="20.3" fill="#fff" transform="translate(446.8 38.0) rotate(1.0)"/><rect x="-9.7" y="-9.7" width="19.5" height="19.5" fill="#fff" transform="translate(468.8 36.1) rotate(8.8)"/><rect x="-9.3" y="-9.3" width="18.6" height="18.6" fill="#fff" transform="translate(492.3 36.8) rotate(-1.4)"/><rect x="-8.8" y="-8.8" width="17.7" height="17.7" fill="#fff" transform="translate(516.7 37.9) rotate(2.1)"/><rect x="-12.4" y="-12.4" width="24.8" height="24.8" fill="#fff" transform="translate(12.0 60.0) rotate(0.0)"/><rect x="-12.4" y="-12.4" width="24.8" height="24.8" fill="#fff" transform="translate(36.0 60.0) rotate(0.0)"/><rect x="-12.4" y="-12.4" width="24.8" height="24.8" fill="#fff" transform="translate(60.0 60.0) rotate(-0.0)"/><rect x="-12.4" y="-12.4" width="24.8" height="24.8" fill="#fff" transform="translate(84.0 60.0) rotate(0.0)"/><rect x="-12.4" y="-12.4" width="24.8" height="24.8" fill="#fff" transform="translate(108.0 60.0) rotate(0.0)"/><rect x="-12.4" y="-12.4" width="24.8" height="24.8" fill="#fff" transform="translate(132.0 60.0) rotate(-0.0)"/><rect x="-12.4" y="-12.4" width="24.8" height="24.8" fill="#fff" transform="translate(156.0 60.0) rotate(0.0)"/><rect x="-12.4" y="-12.4" width="24.8" height="24.8" fill="#fff" transform="translate(180.0 60.0) rotate(0.0)"/><rect x="-12.4" y="-12.4" width="24.8" height="24.8" fill="#fff" transform="translate(204.0 60.0) rotate(0.0)"/><rect x="-12.4" y="-12.4" width="24.8" height="24.8" fill="#fff" transform="translate(228.0 60.0) rotate(0.0)"/><rect x="-12.4" y="-12.4" width="24.8" height="24.8" fill="#fff" transform="translate(252.0 60.0) rotate(0.0)"/><rect x="-12.4" y="-12.4" width="24.8" height="24.8" fill="#fff" transform="translate(276.0 60.0) rotate(0.0)"/><rect x="-12.4" y="-12.4" width="24.8" height="24.8" fill="#fff" transform="translate(300.0 60.0) rotate(0.0)"/><rect x="-11.8" y="-11.8" width="23.6" height="23.6" fill="#fff" transform="translate(324.3 60.2) rotate(0.9)"/><rect x="-11.4" y="-11.4" width="22.8" height="22.8" fill="#fff" transform="translate(348.5 61.0) rotate(0.5)"/><rect x="-11.0" y="-11.0" width="22.0" height="22.0" fill="#fff" transform="translate(372.1 61.1) rotate(2.5)"/><rect x="-10.6" y="-10.6" width="21.2" height="21.2" fill="#fff" transform="translate(397.8 61.3) rotate(-3.7)"/><rect x="-10.2" y="-10.2" width="20.3" height="20.3" fill="#fff" transform="translate(420.8 60.0) rotate(7.3)"/><rect x="-9.7" y="-9.7" width="19.5" height="19.5" fill="#fff" transform="translate(444.8 60.7) rotate(3.8)"/><rect x="-9.3" y="-9.3" width="18.6" height="18.6" fill="#fff" transform="translate(470.1 64.2) rotate(4.0)"/><rect x="-8.8" y="-8.8" width="17.7" height="17.7" fill="#fff" transform="translate(493.1 62.3) rotate(4.8)"/><rect x="-8.4" y="-8.4" width="16.7" height="16.7" fill="#fff" transform="translate(521.3 62.3) rotate(13.4)"/><rect x="-12.4" y="-12.4" width="24.8" height="24.8" fill="#fff" transform="translate(12.0 84.0) rotate(0.0)"/><rect x="-12.4" y="-12.4" width="24.8" height="24.8" fill="#fff" transform="translate(36.0 84.0) rotate(-0.0)"/><rect x="-12.4" y="-12.4" width="24.8" height="24.8" fill="#fff" transform="translate(60.0 84.0) rotate(0.0)"/><rect x="-12.4" y="-12.4" width="24.8" height="24.8" fill="#fff" transform="translate(84.0 84.0) rotate(-0.0)"/><rect x="-12.4" y="-12.4" width="24.8" height="24.8" fill="#fff" transform="translate(108.0 84.0) rotate(-0.0)"/><rect x="-12.4" y="-12.4" width="24.8" height="24.8" fill="#fff" transform="translate(132.0 84.0) rotate(-0.0)"/><rect x="-12.4" y="-12.4" width="24.8" height="24.8" fill="#fff" transform="translate(156.0 84.0) rotate(0.0)"/><rect x="-12.4" y="-12.4" width="24.8" height="24.8" fill="#fff" transform="translate(180.0 84.0) rotate(-0.0)"/><rect x="-12.4" y="-12.4" width="24.8" height="24.8" fill="#fff" transform="translate(204.0 84.0) rotate(0.0)"/><rect x="-12.4" y="-12.4" width="24.8" height="24.8" fill="#fff" transform="translate(228.0 84.0) rotate(0.0)"/><rect x="-12.4" y="-12.4" width="24.8" height="24.8" fill="#fff" transform="translate(252.0 84.0) rotate(-0.0)"/><rect x="-12.4" y="-12.4" width="24.8" height="24.8" fill="#fff" transform="translate(276.0 84.0) rotate(-0.0)"/><rect x="-11.8" y="-11.8" width="23.6" height="23.6" fill="#fff" transform="translate(300.3 84.3) rotate(-0.1)"/><rect x="-11.4" y="-11.4" width="22.8" height="22.8" fill="#fff" transform="translate(324.8 84.2) rotate(2.8)"/><rect x="-11.0" y="-11.0" width="22.0" height="22.0" fill="#fff" transform="translate(348.0 84.9) rotate(-3.2)"/><rect x="-10.6" y="-10.6" width="21.2" height="21.2" fill="#fff" transform="translate(372.7 84.9) rotate(-4.4)"/><rect x="-10.2" y="-10.2" width="20.3" height="20.3" fill="#fff" transform="translate(398.0 86.5) rotate(0.4)"/><rect x="-9.7" y="-9.7" width="19.5" height="19.5" fill="#fff" transform="translate(423.6 84.3) rotate(6.2)"/><rect x="-9.3" y="-9.3" width="18.6" height="18.6" fill="#fff" transform="translate(444.6 86.1) rotate(5.5)"/><rect x="-8.8" y="-8.8" width="17.7" height="17.7" fill="#fff" transform="translate(470.0 87.1) rotate(11.7)"/><rect x="-8.4" y="-8.4" width="16.7" height="16.7" fill="#fff" transform="translate(497.7 86.8) rotate(9.6)"/><rect x="-7.9" y="-7.9" width="15.8" height="15.8" fill="#fff" transform="translate(520.9 89.5) rotate(-10.7)"/><rect x="-12.4" y="-12.4" width="24.8" height="24.8" fill="#fff" transform="translate(12.0 108.0) rotate(0.0)"/><rect x="-12.4" y="-12.4" width="24.8" height="24.8" fill="#fff" transform="translate(36.0 108.0) rotate(0.0)"/><rect x="-12.4" y="-12.4" width="24.8" height="24.8" fill="#fff" transform="translate(60.0 108.0) rotate(0.0)"/><rect x="-12.4" y="-12.4" width="24.8" height="24.8" fill="#fff" transform="translate(84.0 108.0) rotate(0.0)"/><rect x="-12.4" y="-12.4" width="24.8" height="24.8" fill="#fff" transform="translate(108.0 108.0) rotate(-0.0)"/><rect x="-12.4" y="-12.4" width="24.8" height="24.8" fill="#fff" transform="translate(132.0 108.0) rotate(0.0)"/><rect x="-12.4" y="-12.4" width="24.8" height="24.8" fill="#fff" transform="translate(156.0 108.0) rotate(0.0)"/><rect x="-12.4" y="-12.4" width="24.8" height="24.8" fill="#fff" transform="translate(180.0 108.0) rotate(-0.0)"/><rect x="-12.4" y="-12.4" width="24.8" height="24.8" fill="#fff" transform="translate(204.0 108.0) rotate(-0.0)"/><rect x="-12.4" y="-12.4" width="24.8" height="24.8" fill="#fff" transform="translate(228.0 108.0) rotate(0.0)"/><rect x="-12.4" y="-12.4" width="24.8" height="24.8" fill="#fff" transform="translate(252.0 108.0) rotate(0.0)"/><rect x="-11.8" y="-11.8" width="23.6" height="23.6" fill="#fff" transform="translate(276.2 108.1) rotate(-0.7)"/><rect x="-11.4" y="-11.4" width="22.8" height="22.8" fill="#fff" transform="translate(300.6 109.0) rotate(0.9)"/><rect x="-11.0" y="-11.0" width="22.0" height="22.0" fill="#fff" transform="translate(324.7 109.6) rotate(-1.9)"/><rect x="-10.6" y="-10.6" width="21.2" height="21.2" fill="#fff" transform="translate(350.2 110.5) rotate(-4.0)"/><rect x="-10.2" y="-10.2" width="20.3" height="20.3" fill="#fff" transform="translate(372.7 109.7) rotate(1.3)"/><rect x="-9.7" y="-9.7" width="19.5" height="19.5" fill="#fff" transform="translate(396.1 111.8) rotate(2.2)"/><rect x="-9.3" y="-9.3" width="18.6" height="18.6" fill="#fff" transform="translate(423.7 110.6) rotate(-2.5)"/><rect x="-8.8" y="-8.8" width="17.7" height="17.7" fill="#fff" transform="translate(444.4 110.9) rotate(5.5)"/><rect x="-8.4" y="-8.4" width="16.7" height="16.7" fill="#fff" transform="translate(473.6 109.6) rotate(14.8)"/><rect x="-7.9" y="-7.9" width="15.8" height="15.8" fill="#fff" transform="translate(494.9 113.5) rotate(-13.5)"/><rect x="-7.4" y="-7.4" width="14.9" height="14.9" fill="#fff" transform="translate(518.4 109.4) rotate(-0.9)"/><rect x="-12.4" y="-12.4" width="24.8" height="24.8" fill="#fff" transform="translate(12.0 132.0) rotate(0.0)"/><rect x="-12.4" y="-12.4" width="24.8" height="24.8" fill="#fff" transform="translate(36.0 132.0) rotate(0.0)"/><rect x="-12.4" y="-12.4" width="24.8" height="24.8" fill="#fff" transform="translate(60.0 132.0) rotate(-0.0)"/><rect x="-12.4" y="-12.4" width="24.8" height="24.8" fill="#fff" transform="translate(84.0 132.0) rotate(-0.0)"/><rect x="-12.4" y="-12.4" width="24.8" height="24.8" fill="#fff" transform="translate(108.0 132.0) rotate(0.0)"/><rect x="-12.4" y="-12.4" width="24.8" height="24.8" fill="#fff" transform="translate(132.0 132.0) rotate(-0.0)"/><rect x="-12.4" y="-12.4" width="24.8" height="24.8" fill="#fff" transform="translate(156.0 132.0) rotate(-0.0)"/><rect x="-12.4" y="-12.4" width="24.8" height="24.8" fill="#fff" transform="translate(180.0 132.0) rotate(0.0)"/><rect x="-12.4" y="-12.4" width="24.8" height="24.8" fill="#fff" transform="translate(204.0 132.0) rotate(0.0)"/><rect x="-12.4" y="-12.4" width="24.8" height="24.8" fill="#fff" transform="translate(228.0 132.0) rotate(0.0)"/><rect x="-11.8" y="-11.8" width="23.6" height="23.6" fill="#fff" transform="translate(252.4 132.4) rotate(0.6)"/><rect x="-11.4" y="-11.4" width="22.8" height="22.8" fill="#fff" transform="translate(277.1 132.3) rotate(-1.1)"/><rect x="-11.0" y="-11.0" width="22.0" height="22.0" fill="#fff" transform="translate(300.2 132.4) rotate(3.8)"/><rect x="-10.6" y="-10.6" width="21.2" height="21.2" fill="#fff" transform="translate(324.2 134.1) rotate(-3.3)"/><rect x="-10.2" y="-10.2" width="20.3" height="20.3" fill="#fff" transform="translate(348.4 133.3) rotate(5.0)"/><rect x="-9.7" y="-9.7" width="19.5" height="19.5" fill="#fff" transform="translate(372.8 134.7) rotate(-10.2)"/><rect x="-9.3" y="-9.3" width="18.6" height="18.6" fill="#fff" transform="translate(396.5 134.4) rotate(11.7)"/><rect x="-8.8" y="-8.8" width="17.7" height="17.7" fill="#fff" transform="translate(423.7 133.0) rotate(0.1)"/><rect x="-7.0" y="-7.0" width="13.9" height="13.9" fill="#fff" transform="translate(520.7 133.2) rotate(0.6)"/><rect x="-12.4" y="-12.4" width="24.8" height="24.8" fill="#fff" transform="translate(12.0 156.0) rotate(-0.0)"/><rect x="-12.4" y="-12.4" width="24.8" height="24.8" fill="#fff" transform="translate(36.0 156.0) rotate(0.0)"/><rect x="-12.4" y="-12.4" width="24.8" height="24.8" fill="#fff" transform="translate(60.0 156.0) rotate(-0.0)"/><rect x="-12.4" y="-12.4" width="24.8" height="24.8" fill="#fff" transform="translate(84.0 156.0) rotate(0.0)"/><rect x="-12.4" y="-12.4" width="24.8" height="24.8" fill="#fff" transform="translate(108.0 156.0) rotate(0.0)"/><rect x="-12.4" y="-12.4" width="24.8" height="24.8" fill="#fff" transform="translate(132.0 156.0) rotate(-0.0)"/><rect x="-12.4" y="-12.4" width="24.8" height="24.8" fill="#fff" transform="translate(156.0 156.0) rotate(-0.0)"/><rect x="-12.4" y="-12.4" width="24.8" height="24.8" fill="#fff" transform="translate(180.0 156.0) rotate(-0.0)"/><rect x="-12.4" y="-12.4" width="24.8" height="24.8" fill="#fff" transform="translate(204.0 156.0) rotate(0.0)"/><rect x="-11.8" y="-11.8" width="23.6" height="23.6" fill="#fff" transform="translate(228.4 156.3) rotate(0.5)"/><rect x="-11.4" y="-11.4" width="22.8" height="22.8" fill="#fff" transform="translate(252.6 157.1) rotate(0.6)"/><rect x="-11.0" y="-11.0" width="22.0" height="22.0" fill="#fff" transform="translate(277.7 157.4) rotate(-2.4)"/><rect x="-10.6" y="-10.6" width="21.2" height="21.2" fill="#fff" transform="translate(301.0 158.3) rotate(4.3)"/><rect x="-10.2" y="-10.2" width="20.3" height="20.3" fill="#fff" transform="translate(326.5 158.5) rotate(3.4)"/><rect x="-9.7" y="-9.7" width="19.5" height="19.5" fill="#fff" transform="translate(348.3 157.4) rotate(4.7)"/><rect x="-9.3" y="-9.3" width="18.6" height="18.6" fill="#fff" transform="translate(373.7 159.0) rotate(-12.2)"/><rect x="-8.8" y="-8.8" width="17.7" height="17.7" fill="#fff" transform="translate(401.1 159.6) rotate(-7.7)"/><rect x="-8.4" y="-8.4" width="16.7" height="16.7" fill="#fff" transform="translate(423.5 159.2) rotate(5.2)"/><rect x="-7.9" y="-7.9" width="15.8" height="15.8" fill="#fff" transform="translate(448.4 160.8) rotate(18.1)"/><rect x="-7.4" y="-7.4" width="14.9" height="14.9" fill="#fff" transform="translate(468.2 160.6) rotate(19.2)"/><rect x="-7.0" y="-7.0" width="13.9" height="13.9" fill="#fff" transform="translate(495.3 156.4) rotate(-10.6)"/><rect x="-12.4" y="-12.4" width="24.8" height="24.8" fill="#fff" transform="translate(12.0 180.0) rotate(-0.0)"/><rect x="-12.4" y="-12.4" width="24.8" height="24.8" fill="#fff" transform="translate(36.0 180.0) rotate(0.0)"/><rect x="-12.4" y="-12.4" width="24.8" height="24.8" fill="#fff" transform="translate(60.0 180.0) rotate(0.0)"/><rect x="-12.4" y="-12.4" width="24.8" height="24.8" fill="#fff" transform="translate(84.0 180.0) rotate(0.0)"/><rect x="-12.4" y="-12.4" width="24.8" height="24.8" fill="#fff" transform="translate(108.0 180.0) rotate(0.0)"/><rect x="-12.4" y="-12.4" width="24.8" height="24.8" fill="#fff" transform="translate(132.0 180.0) rotate(0.0)"/><rect x="-12.4" y="-12.4" width="24.8" height="24.8" fill="#fff" transform="translate(156.0 180.0) rotate(-0.0)"/><rect x="-12.4" y="-12.4" width="24.8" height="24.8" fill="#fff" transform="translate(180.0 180.0) rotate(-0.0)"/><rect x="-11.8" y="-11.8" width="23.6" height="23.6" fill="#fff" transform="translate(204.2 180.1) rotate(0.2)"/><rect x="-11.4" y="-11.4" width="22.8" height="22.8" fill="#fff" transform="translate(228.3 180.8) rotate(0.4)"/><rect x="-11.0" y="-11.0" width="22.0" height="22.0" fill="#fff" transform="translate(252.5 180.1) rotate(-4.8)"/><rect x="-10.6" y="-10.6" width="21.2" height="21.2" fill="#fff" transform="translate(277.0 182.3) rotate(3.5)"/><rect x="-10.2" y="-10.2" width="20.3" height="20.3" fill="#fff" transform="translate(303.2 183.1) rotate(-7.8)"/><rect x="-9.3" y="-9.3" width="18.6" height="18.6" fill="#fff" transform="translate(350.2 184.5) rotate(-1.8)"/><rect x="-8.8" y="-8.8" width="17.7" height="17.7" fill="#fff" transform="translate(377.0 183.9) rotate(0.7)"/><rect x="-8.4" y="-8.4" width="16.7" height="16.7" fill="#fff" transform="translate(401.0 183.7) rotate(15.5)"/><rect x="-7.4" y="-7.4" width="14.9" height="14.9" fill="#fff" transform="translate(445.5 180.4) rotate(-1.8)"/><rect x="-7.0" y="-7.0" width="13.9" height="13.9" fill="#fff" transform="translate(471.6 185.5) rotate(-16.4)"/><rect x="-6.5" y="-6.5" width="13.0" height="13.0" fill="#fff" transform="translate(497.2 183.7) rotate(-11.3)"/><rect x="-6.0" y="-6.0" width="12.0" height="12.0" fill="#fff" transform="translate(525.6 189.1) rotate(1.6)"/><rect x="-12.4" y="-12.4" width="24.8" height="24.8" fill="#fff" transform="translate(12.0 204.0) rotate(0.0)"/><rect x="-12.4" y="-12.4" width="24.8" height="24.8" fill="#fff" transform="translate(36.0 204.0) rotate(0.0)"/><rect x="-12.4" y="-12.4" width="24.8" height="24.8" fill="#fff" transform="translate(60.0 204.0) rotate(-0.0)"/><rect x="-12.4" y="-12.4" width="24.8" height="24.8" fill="#fff" transform="translate(84.0 204.0) rotate(0.0)"/><rect x="-12.4" y="-12.4" width="24.8" height="24.8" fill="#fff" transform="translate(108.0 204.0) rotate(0.0)"/><rect x="-12.4" y="-12.4" width="24.8" height="24.8" fill="#fff" transform="translate(132.0 204.0) rotate(0.0)"/><rect x="-12.4" y="-12.4" width="24.8" height="24.8" fill="#fff" transform="translate(156.0 204.0) rotate(-0.0)"/><rect x="-11.8" y="-11.8" width="23.6" height="23.6" fill="#fff" transform="translate(180.0 204.2) rotate(0.3)"/><rect x="-11.4" y="-11.4" width="22.8" height="22.8" fill="#fff" transform="translate(204.8 204.6) rotate(-2.5)"/><rect x="-11.0" y="-11.0" width="22.0" height="22.0" fill="#fff" transform="translate(228.9 204.4) rotate(-1.3)"/><rect x="-10.6" y="-10.6" width="21.2" height="21.2" fill="#fff" transform="translate(254.1 204.2) rotate(3.3)"/><rect x="-10.2" y="-10.2" width="20.3" height="20.3" fill="#fff" transform="translate(278.0 206.5) rotate(5.4)"/><rect x="-9.7" y="-9.7" width="19.5" height="19.5" fill="#fff" transform="translate(301.0 207.2) rotate(-1.6)"/><rect x="-9.3" y="-9.3" width="18.6" height="18.6" fill="#fff" transform="translate(328.6 205.5) rotate(3.8)"/><rect x="-8.8" y="-8.8" width="17.7" height="17.7" fill="#fff" transform="translate(352.9 206.3) rotate(7.1)"/><rect x="-8.4" y="-8.4" width="16.7" height="16.7" fill="#fff" transform="translate(377.3 204.5) rotate(-13.1)"/><rect x="-7.4" y="-7.4" width="14.9" height="14.9" fill="#fff" transform="translate(425.1 206.2) rotate(-0.6)"/><rect x="-7.0" y="-7.0" width="13.9" height="13.9" fill="#fff" transform="translate(445.7 209.4) rotate(-18.5)"/><rect x="-6.0" y="-6.0" width="12.0" height="12.0" fill="#fff" transform="translate(498.7 206.7) rotate(11.5)"/><rect x="-12.4" y="-12.4" width="24.8" height="24.8" fill="#fff" transform="translate(12.0 228.0) rotate(-0.0)"/><rect x="-12.4" y="-12.4" width="24.8" height="24.8" fill="#fff" transform="translate(36.0 228.0) rotate(-0.0)"/><rect x="-12.4" y="-12.4" width="24.8" height="24.8" fill="#fff" transform="translate(60.0 228.0) rotate(0.0)"/><rect x="-12.4" y="-12.4" width="24.8" height="24.8" fill="#fff" transform="translate(84.0 228.0) rotate(-0.0)"/><rect x="-12.4" y="-12.4" width="24.8" height="24.8" fill="#fff" transform="translate(108.0 228.0) rotate(-0.0)"/><rect x="-12.4" y="-12.4" width="24.8" height="24.8" fill="#fff" transform="translate(132.0 228.0) rotate(0.0)"/><rect x="-11.8" y="-11.8" width="23.6" height="23.6" fill="#fff" transform="translate(156.2 228.2) rotate(-0.3)"/><rect x="-11.4" y="-11.4" width="22.8" height="22.8" fill="#fff" transform="translate(180.9 228.6) rotate(0.4)"/><rect x="-11.0" y="-11.0" width="22.0" height="22.0" fill="#fff" transform="translate(204.3 229.4) rotate(0.6)"/><rect x="-10.6" y="-10.6" width="21.2" height="21.2" fill="#fff" transform="translate(228.1 229.3) rotate(-3.0)"/><rect x="-10.2" y="-10.2" width="20.3" height="20.3" fill="#fff" transform="translate(255.2 230.1) rotate(1.2)"/><rect x="-9.7" y="-9.7" width="19.5" height="19.5" fill="#fff" transform="translate(278.2 231.1) rotate(-9.2)"/><rect x="-8.4" y="-8.4" width="16.7" height="16.7" fill="#fff" transform="translate(348.5 231.9) rotate(12.9)"/><rect x="-7.4" y="-7.4" width="14.9" height="14.9" fill="#fff" transform="translate(397.8 229.6) rotate(5.9)"/><rect x="-7.0" y="-7.0" width="13.9" height="13.9" fill="#fff" transform="translate(426.3 231.2) rotate(0.9)"/><rect x="-6.5" y="-6.5" width="13.0" height="13.0" fill="#fff" transform="translate(450.0 232.4) rotate(22.2)"/><rect x="-6.0" y="-6.0" width="12.0" height="12.0" fill="#fff" transform="translate(474.8 236.8) rotate(11.3)"/><rect x="-5.5" y="-5.5" width="11.0" height="11.0" fill="#fff" transform="translate(498.9 236.8) rotate(17.9)"/><rect x="-5.0" y="-5.0" width="10.0" height="10.0" fill="#fff" transform="translate(525.8 238.5) rotate(19.6)"/><rect x="-12.4" y="-12.4" width="24.8" height="24.8" fill="#fff" transform="translate(12.0 252.0) rotate(0.0)"/><rect x="-12.4" y="-12.4" width="24.8" height="24.8" fill="#fff" transform="translate(36.0 252.0) rotate(0.0)"/><rect x="-12.4" y="-12.4" width="24.8" height="24.8" fill="#fff" transform="translate(60.0 252.0) rotate(-0.0)"/><rect x="-12.4" y="-12.4" width="24.8" height="24.8" fill="#fff" transform="translate(84.0 252.0) rotate(-0.0)"/><rect x="-12.4" y="-12.4" width="24.8" height="24.8" fill="#fff" transform="translate(108.0 252.0) rotate(-0.0)"/><rect x="-11.8" y="-11.8" width="23.6" height="23.6" fill="#fff" transform="translate(132.1 252.3) rotate(-0.5)"/><rect x="-11.4" y="-11.4" width="22.8" height="22.8" fill="#fff" transform="translate(156.1 252.5) rotate(-2.0)"/><rect x="-11.0" y="-11.0" width="22.0" height="22.0" fill="#fff" transform="translate(180.1 252.2) rotate(4.1)"/><rect x="-10.6" y="-10.6" width="21.2" height="21.2" fill="#fff" transform="translate(204.6 253.8) rotate(-3.9)"/><rect x="-10.2" y="-10.2" width="20.3" height="20.3" fill="#fff" transform="translate(228.6 252.9) rotate(-4.8)"/><rect x="-9.7" y="-9.7" width="19.5" height="19.5" fill="#fff" transform="translate(253.2 254.2) rotate(5.4)"/><rect x="-9.3" y="-9.3" width="18.6" height="18.6" fill="#fff" transform="translate(277.2 256.1) rotate(-0.5)"/><rect x="-8.8" y="-8.8" width="17.7" height="17.7" fill="#fff" transform="translate(302.9 257.1) rotate(-4.5)"/><rect x="-8.4" y="-8.4" width="16.7" height="16.7" fill="#fff" transform="translate(324.3 257.8) rotate(-9.0)"/><rect x="-7.9" y="-7.9" width="15.8" height="15.8" fill="#fff" transform="translate(351.6 255.5) rotate(-4.2)"/><rect x="-7.4" y="-7.4" width="14.9" height="14.9" fill="#fff" transform="translate(376.9 253.8) rotate(19.6)"/><rect x="-6.5" y="-6.5" width="13.0" height="13.0" fill="#fff" transform="translate(427.1 258.3) rotate(-6.1)"/><rect x="-6.0" y="-6.0" width="12.0" height="12.0" fill="#fff" transform="translate(445.5 255.1) rotate(-17.5)"/><rect x="-5.5" y="-5.5" width="11.0" height="11.0" fill="#fff" transform="translate(473.3 258.6) rotate(20.3)"/><rect x="-5.0" y="-5.0" width="10.0" height="10.0" fill="#fff" transform="translate(497.9 253.7) rotate(-13.7)"/><rect x="-4.5" y="-4.5" width="9.1" height="9.1" fill="#fff" transform="translate(525.6 261.9) rotate(-31.1)"/><rect x="-12.4" y="-12.4" width="24.8" height="24.8" fill="#fff" transform="translate(12.0 276.0) rotate(0.0)"/><rect x="-12.4" y="-12.4" width="24.8" height="24.8" fill="#fff" transform="translate(36.0 276.0) rotate(0.0)"/><rect x="-12.4" y="-12.4" width="24.8" height="24.8" fill="#fff" transform="translate(60.0 276.0) rotate(-0.0)"/><rect x="-12.4" y="-12.4" width="24.8" height="24.8" fill="#fff" transform="translate(84.0 276.0) rotate(0.0)"/><rect x="-11.8" y="-11.8" width="23.6" height="23.6" fill="#fff" transform="translate(108.0 276.4) rotate(1.0)"/><rect x="-11.4" y="-11.4" width="22.8" height="22.8" fill="#fff" transform="translate(132.6 276.2) rotate(0.3)"/><rect x="-11.0" y="-11.0" width="22.0" height="22.0" fill="#fff" transform="translate(156.6 276.1) rotate(-1.9)"/><rect x="-10.6" y="-10.6" width="21.2" height="21.2" fill="#fff" transform="translate(181.8 276.9) rotate(-0.4)"/><rect x="-10.2" y="-10.2" width="20.3" height="20.3" fill="#fff" transform="translate(205.3 277.5) rotate(-6.9)"/><rect x="-9.7" y="-9.7" width="19.5" height="19.5" fill="#fff" transform="translate(230.6 276.0) rotate(7.0)"/><rect x="-9.3" y="-9.3" width="18.6" height="18.6" fill="#fff" transform="translate(253.1 278.6) rotate(5.2)"/><rect x="-8.8" y="-8.8" width="17.7" height="17.7" fill="#fff" transform="translate(281.3 280.3) rotate(-14.0)"/><rect x="-8.4" y="-8.4" width="16.7" height="16.7" fill="#fff" transform="translate(301.8 278.3) rotate(3.8)"/><rect x="-7.9" y="-7.9" width="15.8" height="15.8" fill="#fff" transform="translate(326.3 278.7) rotate(-7.3)"/><rect x="-7.4" y="-7.4" width="14.9" height="14.9" fill="#fff" transform="translate(349.5 281.5) rotate(-9.7)"/><rect x="-7.0" y="-7.0" width="13.9" height="13.9" fill="#fff" transform="translate(376.6 281.9) rotate(19.4)"/><rect x="-6.5" y="-6.5" width="13.0" height="13.0" fill="#fff" transform="translate(396.8 277.3) rotate(15.5)"/><rect x="-5.5" y="-5.5" width="11.0" height="11.0" fill="#fff" transform="translate(445.9 280.1) rotate(11.4)"/><rect x="-5.0" y="-5.0" width="10.0" height="10.0" fill="#fff" transform="translate(469.0 278.5) rotate(5.4)"/><rect x="-12.4" y="-12.4" width="24.8" height="24.8" fill="#fff" transform="translate(12.0 300.0) rotate(-0.0)"/><rect x="-12.4" y="-12.4" width="24.8" height="24.8" fill="#fff" transform="translate(36.0 300.0) rotate(-0.0)"/><rect x="-12.4" y="-12.4" width="24.8" height="24.8" fill="#fff" transform="translate(60.0 300.0) rotate(0.0)"/><rect x="-11.8" y="-11.8" width="23.6" height="23.6" fill="#fff" transform="translate(84.0 300.2) rotate(-0.2)"/><rect x="-11.4" y="-11.4" width="22.8" height="22.8" fill="#fff" transform="translate(108.9 300.8) rotate(3.0)"/><rect x="-11.0" y="-11.0" width="22.0" height="22.0" fill="#fff" transform="translate(132.6 300.6) rotate(-4.8)"/><rect x="-10.6" y="-10.6" width="21.2" height="21.2" fill="#fff" transform="translate(157.0 301.3) rotate(-5.4)"/><rect x="-10.2" y="-10.2" width="20.3" height="20.3" fill="#fff" transform="translate(182.0 300.5) rotate(5.7)"/><rect x="-9.7" y="-9.7" width="19.5" height="19.5" fill="#fff" transform="translate(206.2 301.4) rotate(8.5)"/><rect x="-9.3" y="-9.3" width="18.6" height="18.6" fill="#fff" transform="translate(231.3 304.6) rotate(-8.9)"/><rect x="-8.8" y="-8.8" width="17.7" height="17.7" fill="#fff" transform="translate(256.5 301.1) rotate(6.2)"/><rect x="-8.4" y="-8.4" width="16.7" height="16.7" fill="#fff" transform="translate(277.2 300.5) rotate(4.1)"/><rect x="-7.9" y="-7.9" width="15.8" height="15.8" fill="#fff" transform="translate(304.7 302.2) rotate(2.8)"/><rect x="-7.4" y="-7.4" width="14.9" height="14.9" fill="#fff" transform="translate(327.5 300.9) rotate(-5.5)"/><rect x="-7.0" y="-7.0" width="13.9" height="13.9" fill="#fff" transform="translate(355.4 304.4) rotate(-15.9)"/><rect x="-6.5" y="-6.5" width="13.0" height="13.0" fill="#fff" transform="translate(374.3 308.1) rotate(2.9)"/><rect x="-6.0" y="-6.0" width="12.0" height="12.0" fill="#fff" transform="translate(401.8 301.2) rotate(16.2)"/><rect x="-5.5" y="-5.5" width="11.0" height="11.0" fill="#fff" transform="translate(429.2 302.5) rotate(-11.6)"/><rect x="-5.0" y="-5.0" width="10.0" height="10.0" fill="#fff" transform="translate(446.0 306.0) rotate(19.4)"/><rect x="-12.4" y="-12.4" width="24.8" height="24.8" fill="#fff" transform="translate(12.0 324.0) rotate(0.0)"/><rect x="-12.4" y="-12.4" width="24.8" height="24.8" fill="#fff" transform="translate(36.0 324.0) rotate(-0.0)"/><rect x="-11.8" y="-11.8" width="23.6" height="23.6" fill="#fff" transform="translate(60.4 324.0) rotate(0.2)"/><rect x="-11.4" y="-11.4" width="22.8" height="22.8" fill="#fff" transform="translate(84.2 324.4) rotate(-0.2)"/><rect x="-11.0" y="-11.0" width="22.0" height="22.0" fill="#fff" transform="translate(109.0 324.5) rotate(-3.2)"/><rect x="-10.6" y="-10.6" width="21.2" height="21.2" fill="#fff" transform="translate(133.6 324.1) rotate(-2.3)"/><rect x="-10.2" y="-10.2" width="20.3" height="20.3" fill="#fff" transform="translate(159.1 326.0) rotate(-6.2)"/><rect x="-9.7" y="-9.7" width="19.5" height="19.5" fill="#fff" transform="translate(182.5 326.7) rotate(-1.9)"/><rect x="-9.3" y="-9.3" width="18.6" height="18.6" fill="#fff" transform="translate(206.3 328.6) rotate(6.3)"/><rect x="-8.8" y="-8.8" width="17.7" height="17.7" fill="#fff" transform="translate(230.2 326.3) rotate(10.2)"/><rect x="-8.4" y="-8.4" width="16.7" height="16.7" fill="#fff" transform="translate(255.2 327.2) rotate(13.1)"/><rect x="-7.9" y="-7.9" width="15.8" height="15.8" fill="#fff" transform="translate(278.2 324.4) rotate(14.6)"/><rect x="-7.4" y="-7.4" width="14.9" height="14.9" fill="#fff" transform="translate(305.5 328.5) rotate(16.0)"/><rect x="-7.0" y="-7.0" width="13.9" height="13.9" fill="#fff" transform="translate(328.9 324.6) rotate(-8.5)"/><rect x="-6.0" y="-6.0" width="12.0" height="12.0" fill="#fff" transform="translate(375.8 324.5) rotate(0.1)"/><rect x="-5.5" y="-5.5" width="11.0" height="11.0" fill="#fff" transform="translate(398.5 327.2) rotate(1.4)"/><rect x="-5.0" y="-5.0" width="10.0" height="10.0" fill="#fff" transform="translate(420.8 334.0) rotate(-15.5)"/><rect x="-4.5" y="-4.5" width="9.1" height="9.1" fill="#fff" transform="translate(454.1 328.9) rotate(10.3)"/><rect x="-4.0" y="-4.0" width="8.1" height="8.1" fill="#fff" transform="translate(477.3 331.0) rotate(-18.4)"/><rect x="-3.5" y="-3.5" width="7.1" height="7.1" fill="#fff" transform="translate(502.4 325.6) rotate(-28.1)"/><rect x="-3.0" y="-3.0" width="6.1" height="6.1" fill="#fff" transform="translate(516.0 327.4) rotate(33.2)"/><rect x="-12.4" y="-12.4" width="24.8" height="24.8" fill="#fff" transform="translate(12.0 348.0) rotate(-0.0)"/><rect x="-11.8" y="-11.8" width="23.6" height="23.6" fill="#fff" transform="translate(36.2 348.2) rotate(0.8)"/><rect x="-11.4" y="-11.4" width="22.8" height="22.8" fill="#fff" transform="translate(60.0 349.0) rotate(-2.8)"/><rect x="-11.0" y="-11.0" width="22.0" height="22.0" fill="#fff" transform="translate(85.7 349.8) rotate(-0.0)"/><rect x="-10.6" y="-10.6" width="21.2" height="21.2" fill="#fff" transform="translate(108.8 350.4) rotate(-4.0)"/><rect x="-10.2" y="-10.2" width="20.3" height="20.3" fill="#fff" transform="translate(134.7 349.2) rotate(-5.3)"/><rect x="-9.7" y="-9.7" width="19.5" height="19.5" fill="#fff" transform="translate(159.5 351.9) rotate(-6.9)"/><rect x="-9.3" y="-9.3" width="18.6" height="18.6" fill="#fff" transform="translate(180.9 352.1) rotate(3.3)"/><rect x="-7.9" y="-7.9" width="15.8" height="15.8" fill="#fff" transform="translate(258.1 353.9) rotate(-6.8)"/><rect x="-7.4" y="-7.4" width="14.9" height="14.9" fill="#fff" transform="translate(281.2 355.0) rotate(-14.6)"/><rect x="-7.0" y="-7.0" width="13.9" height="13.9" fill="#fff" transform="translate(301.8 350.5) rotate(-18.4)"/><rect x="-6.5" y="-6.5" width="13.0" height="13.0" fill="#fff" transform="translate(325.6 350.1) rotate(-14.4)"/><rect x="-6.0" y="-6.0" width="12.0" height="12.0" fill="#fff" transform="translate(351.6 354.3) rotate(14.9)"/><rect x="-5.5" y="-5.5" width="11.0" height="11.0" fill="#fff" transform="translate(374.4 351.1) rotate(4.9)"/><rect x="-5.0" y="-5.0" width="10.0" height="10.0" fill="#fff" transform="translate(399.0 355.0) rotate(9.8)"/><rect x="-4.0" y="-4.0" width="8.1" height="8.1" fill="#fff" transform="translate(450.6 354.6) rotate(-3.9)"/><rect x="-3.0" y="-3.0" width="6.1" height="6.1" fill="#fff" transform="translate(495.5 359.1) rotate(-15.9)"/><rect x="-11.8" y="-11.8" width="23.6" height="23.6" fill="#fff" transform="translate(12.1 372.1) rotate(0.6)"/><rect x="-11.4" y="-11.4" width="22.8" height="22.8" fill="#fff" transform="translate(37.0 373.1) rotate(-1.9)"/><rect x="-10.6" y="-10.6" width="21.2" height="21.2" fill="#fff" transform="translate(85.0 374.4) rotate(3.4)"/><rect x="-10.2" y="-10.2" width="20.3" height="20.3" fill="#fff" transform="translate(109.8 374.1) rotate(-5.6)"/><rect x="-9.7" y="-9.7" width="19.5" height="19.5" fill="#fff" transform="translate(135.1 374.0) rotate(3.3)"/><rect x="-9.3" y="-9.3" width="18.6" height="18.6" fill="#fff" transform="translate(159.2 374.4) rotate(8.6)"/><rect x="-8.8" y="-8.8" width="17.7" height="17.7" fill="#fff" transform="translate(184.2 372.9) rotate(-9.3)"/><rect x="-8.4" y="-8.4" width="16.7" height="16.7" fill="#fff" transform="translate(206.7 376.7) rotate(-8.6)"/><rect x="-7.9" y="-7.9" width="15.8" height="15.8" fill="#fff" transform="translate(229.6 375.3) rotate(10.5)"/><rect x="-7.4" y="-7.4" width="14.9" height="14.9" fill="#fff" transform="translate(255.7 372.3) rotate(3.2)"/><rect x="-7.0" y="-7.0" width="13.9" height="13.9" fill="#fff" transform="translate(280.7 379.1) rotate(9.4)"/><rect x="-5.0" y="-5.0" width="10.0" height="10.0" fill="#fff" transform="translate(376.9 374.9) rotate(-3.8)"/><rect x="-4.5" y="-4.5" width="9.1" height="9.1" fill="#fff" transform="translate(406.6 378.7) rotate(-26.7)"/><rect x="-4.0" y="-4.0" width="8.1" height="8.1" fill="#fff" transform="translate(423.0 373.8) rotate(19.3)"/><rect x="-3.5" y="-3.5" width="7.1" height="7.1" fill="#fff" transform="translate(448.1 380.1) rotate(-32.0)"/><rect x="-3.0" y="-3.0" width="6.1" height="6.1" fill="#fff" transform="translate(476.1 373.2) rotate(-17.3)"/><rect x="-2.5" y="-2.5" width="5.1" height="5.1" fill="#fff" transform="translate(495.7 374.3) rotate(-25.4)"/><rect x="-2.0" y="-2.0" width="4.1" height="4.1" fill="#fff" transform="translate(528.0 372.9) rotate(26.9)"/><rect x="-11.4" y="-11.4" width="22.8" height="22.8" fill="#fff" transform="translate(12.2 397.1) rotate(-0.8)"/><rect x="-10.6" y="-10.6" width="21.2" height="21.2" fill="#fff" transform="translate(62.5 396.4) rotate(3.6)"/><rect x="-10.2" y="-10.2" width="20.3" height="20.3" fill="#fff" transform="translate(84.1 396.8) rotate(4.3)"/><rect x="-9.7" y="-9.7" width="19.5" height="19.5" fill="#fff" transform="translate(109.6 397.2) rotate(-7.6)"/><rect x="-9.3" y="-9.3" width="18.6" height="18.6" fill="#fff" transform="translate(132.2 400.7) rotate(-10.5)"/><rect x="-8.8" y="-8.8" width="17.7" height="17.7" fill="#fff" transform="translate(157.2 397.4) rotate(6.7)"/><rect x="-8.4" y="-8.4" width="16.7" height="16.7" fill="#fff" transform="translate(182.8 401.7) rotate(-8.4)"/><rect x="-7.9" y="-7.9" width="15.8" height="15.8" fill="#fff" transform="translate(210.7 400.1) rotate(-5.9)"/><rect x="-7.0" y="-7.0" width="13.9" height="13.9" fill="#fff" transform="translate(252.5 398.8) rotate(6.5)"/><rect x="-6.5" y="-6.5" width="13.0" height="13.0" fill="#fff" transform="translate(281.2 403.9) rotate(17.3)"/><rect x="-6.0" y="-6.0" width="12.0" height="12.0" fill="#fff" transform="translate(308.1 399.7) rotate(-5.5)"/><rect x="-5.5" y="-5.5" width="11.0" height="11.0" fill="#fff" transform="translate(327.6 397.9) rotate(-15.6)"/><rect x="-5.0" y="-5.0" width="10.0" height="10.0" fill="#fff" transform="translate(350.2 398.4) rotate(-19.7)"/><rect x="-4.5" y="-4.5" width="9.1" height="9.1" fill="#fff" transform="translate(377.2 407.6) rotate(-11.9)"/><rect x="-4.0" y="-4.0" width="8.1" height="8.1" fill="#fff" transform="translate(398.5 400.7) rotate(24.0)"/><rect x="-3.0" y="-3.0" width="6.1" height="6.1" fill="#fff" transform="translate(447.8 396.3) rotate(-10.1)"/><rect x="-1.5" y="-1.5" width="3.0" height="3.0" fill="#fff" transform="translate(527.4 400.3) rotate(36.0)"/><rect x="-11.0" y="-11.0" width="22.0" height="22.0" fill="#fff" transform="translate(13.7 420.7) rotate(-3.4)"/><rect x="-10.6" y="-10.6" width="21.2" height="21.2" fill="#fff" transform="translate(38.3 420.1) rotate(3.1)"/><rect x="-10.2" y="-10.2" width="20.3" height="20.3" fill="#fff" transform="translate(60.3 422.9) rotate(-2.0)"/><rect x="-9.7" y="-9.7" width="19.5" height="19.5" fill="#fff" transform="translate(86.1 420.2) rotate(5.7)"/><rect x="-9.3" y="-9.3" width="18.6" height="18.6" fill="#fff" transform="translate(108.2 420.7) rotate(-6.5)"/><rect x="-8.8" y="-8.8" width="17.7" height="17.7" fill="#fff" transform="translate(133.7 422.3) rotate(-13.4)"/><rect x="-8.4" y="-8.4" width="16.7" height="16.7" fill="#fff" transform="translate(160.3 421.6) rotate(-11.8)"/><rect x="-7.9" y="-7.9" width="15.8" height="15.8" fill="#fff" transform="translate(181.0 421.4) rotate(6.0)"/><rect x="-7.4" y="-7.4" width="14.9" height="14.9" fill="#fff" transform="translate(207.0 422.9) rotate(8.5)"/><rect x="-7.0" y="-7.0" width="13.9" height="13.9" fill="#fff" transform="translate(230.4 422.8) rotate(-12.0)"/><rect x="-6.5" y="-6.5" width="13.0" height="13.0" fill="#fff" transform="translate(252.2 425.6) rotate(-21.8)"/><rect x="-6.0" y="-6.0" width="12.0" height="12.0" fill="#fff" transform="translate(285.4 422.9) rotate(15.8)"/><rect x="-5.5" y="-5.5" width="11.0" height="11.0" fill="#fff" transform="translate(302.2 427.1) rotate(23.0)"/><rect x="-5.0" y="-5.0" width="10.0" height="10.0" fill="#fff" transform="translate(333.5 422.6) rotate(26.7)"/><rect x="-4.5" y="-4.5" width="9.1" height="9.1" fill="#fff" transform="translate(353.0 424.6) rotate(-25.6)"/><rect x="-3.5" y="-3.5" width="7.1" height="7.1" fill="#fff" transform="translate(402.5 423.7) rotate(-12.0)"/><rect x="-2.5" y="-2.5" width="5.1" height="5.1" fill="#fff" transform="translate(446.4 429.7) rotate(-1.9)"/><rect x="-10.6" y="-10.6" width="21.2" height="21.2" fill="#fff" transform="translate(13.5 445.8) rotate(-4.8)"/><rect x="-10.2" y="-10.2" width="20.3" height="20.3" fill="#fff" transform="translate(36.1 445.3) rotate(3.5)"/><rect x="-9.7" y="-9.7" width="19.5" height="19.5" fill="#fff" transform="translate(61.6 444.2) rotate(-9.2)"/><rect x="-9.3" y="-9.3" width="18.6" height="18.6" fill="#fff" transform="translate(86.2 445.5) rotate(2.1)"/><rect x="-8.8" y="-8.8" width="17.7" height="17.7" fill="#fff" transform="translate(109.9 448.8) rotate(-13.7)"/><rect x="-8.4" y="-8.4" width="16.7" height="16.7" fill="#fff" transform="translate(136.1 445.1) rotate(-7.7)"/><rect x="-7.9" y="-7.9" width="15.8" height="15.8" fill="#fff" transform="translate(162.5 446.5) rotate(4.2)"/><rect x="-7.4" y="-7.4" width="14.9" height="14.9" fill="#fff" transform="translate(185.8 448.7) rotate(17.7)"/><rect x="-7.0" y="-7.0" width="13.9" height="13.9" fill="#fff" transform="translate(207.4 446.3) rotate(-3.9)"/><rect x="-6.5" y="-6.5" width="13.0" height="13.0" fill="#fff" transform="translate(231.4 452.1) rotate(18.0)"/><rect x="-5.0" y="-5.0" width="10.0" height="10.0" fill="#fff" transform="translate(304.0 454.7) rotate(-11.2)"/><rect x="-3.0" y="-3.0" width="6.1" height="6.1" fill="#fff" transform="translate(396.0 451.5) rotate(-19.6)"/><rect x="-2.5" y="-2.5" width="5.1" height="5.1" fill="#fff" transform="translate(427.2 453.4) rotate(-20.2)"/><rect x="-2.0" y="-2.0" width="4.1" height="4.1" fill="#fff" transform="translate(452.5 456.6) rotate(10.1)"/><rect x="-1.5" y="-1.5" width="3.0" height="3.0" fill="#fff" transform="translate(473.5 458.1) rotate(-14.1)"/><rect x="-10.2" y="-10.2" width="20.3" height="20.3" fill="#fff" transform="translate(15.1 470.7) rotate(3.2)"/><rect x="-9.7" y="-9.7" width="19.5" height="19.5" fill="#fff" transform="translate(37.9 470.2) rotate(2.6)"/><rect x="-9.3" y="-9.3" width="18.6" height="18.6" fill="#fff" transform="translate(63.5 470.5) rotate(-5.3)"/><rect x="-8.8" y="-8.8" width="17.7" height="17.7" fill="#fff" transform="translate(85.7 469.0) rotate(-7.2)"/><rect x="-8.4" y="-8.4" width="16.7" height="16.7" fill="#fff" transform="translate(108.4 468.4) rotate(-12.1)"/><rect x="-7.4" y="-7.4" width="14.9" height="14.9" fill="#fff" transform="translate(159.4 473.8) rotate(-15.5)"/><rect x="-7.0" y="-7.0" width="13.9" height="13.9" fill="#fff" transform="translate(187.1 475.1) rotate(-14.7)"/><rect x="-6.0" y="-6.0" width="12.0" height="12.0" fill="#fff" transform="translate(235.6 471.8) rotate(0.4)"/><rect x="-5.5" y="-5.5" width="11.0" height="11.0" fill="#fff" transform="translate(259.4 471.4) rotate(-13.6)"/><rect x="-5.0" y="-5.0" width="10.0" height="10.0" fill="#fff" transform="translate(285.3 477.1) rotate(15.2)"/><rect x="-4.5" y="-4.5" width="9.1" height="9.1" fill="#fff" transform="translate(308.3 475.3) rotate(-5.0)"/><rect x="-4.0" y="-4.0" width="8.1" height="8.1" fill="#fff" transform="translate(325.6 472.7) rotate(19.9)"/><rect x="-3.5" y="-3.5" width="7.1" height="7.1" fill="#fff" transform="translate(350.4 468.2) rotate(-18.8)"/><rect x="-3.0" y="-3.0" width="6.1" height="6.1" fill="#fff" transform="translate(385.4 469.8) rotate(32.5)"/><rect x="-2.5" y="-2.5" width="5.1" height="5.1" fill="#fff" transform="translate(405.2 473.8) rotate(-6.2)"/><rect x="-2.0" y="-2.0" width="4.1" height="4.1" fill="#fff" transform="translate(420.7 478.9) rotate(39.7)"/><rect x="-9.7" y="-9.7" width="19.5" height="19.5" fill="#fff" transform="translate(13.3 492.1) rotate(-8.0)"/><rect x="-9.3" y="-9.3" width="18.6" height="18.6" fill="#fff" transform="translate(37.7 493.4) rotate(-0.4)"/><rect x="-8.8" y="-8.8" width="17.7" height="17.7" fill="#fff" transform="translate(61.5 494.1) rotate(9.7)"/><rect x="-8.4" y="-8.4" width="16.7" height="16.7" fill="#fff" transform="translate(90.0 494.4) rotate(8.6)"/><rect x="-7.9" y="-7.9" width="15.8" height="15.8" fill="#fff" transform="translate(113.4 493.0) rotate(1.7)"/><rect x="-7.4" y="-7.4" width="14.9" height="14.9" fill="#fff" transform="translate(139.0 493.9) rotate(-15.7)"/><rect x="-7.0" y="-7.0" width="13.9" height="13.9" fill="#fff" transform="translate(158.6 492.2) rotate(-16.6)"/><rect x="-6.5" y="-6.5" width="13.0" height="13.0" fill="#fff" transform="translate(185.6 494.4) rotate(-16.9)"/><rect x="-6.0" y="-6.0" width="12.0" height="12.0" fill="#fff" transform="translate(207.5 494.5) rotate(-0.9)"/><rect x="-4.5" y="-4.5" width="9.1" height="9.1" fill="#fff" transform="translate(276.9 494.1) rotate(-11.9)"/><rect x="-4.0" y="-4.0" width="8.1" height="8.1" fill="#fff" transform="translate(302.5 502.8) rotate(32.9)"/><rect x="-3.5" y="-3.5" width="7.1" height="7.1" fill="#fff" transform="translate(334.6 497.2) rotate(-6.0)"/><rect x="-2.5" y="-2.5" width="5.1" height="5.1" fill="#fff" transform="translate(381.0 496.0) rotate(12.1)"/><rect x="-2.0" y="-2.0" width="4.1" height="4.1" fill="#fff" transform="translate(411.1 498.7) rotate(29.6)"/><rect x="-1.5" y="-1.5" width="3.0" height="3.0" fill="#fff" transform="translate(422.8 492.4) rotate(19.1)"/><rect x="-9.3" y="-9.3" width="18.6" height="18.6" fill="#fff" transform="translate(14.4 516.0) rotate(-4.7)"/><rect x="-8.8" y="-8.8" width="17.7" height="17.7" fill="#fff" transform="translate(36.1 518.8) rotate(13.2)"/><rect x="-8.4" y="-8.4" width="16.7" height="16.7" fill="#fff" transform="translate(64.5 518.4) rotate(9.5)"/><rect x="-7.9" y="-7.9" width="15.8" height="15.8" fill="#fff" transform="translate(89.2 522.7) rotate(11.8)"/><rect x="-7.0" y="-7.0" width="13.9" height="13.9" fill="#fff" transform="translate(137.8 518.1) rotate(-4.3)"/><rect x="-6.5" y="-6.5" width="13.0" height="13.0" fill="#fff" transform="translate(161.1 518.0) rotate(-22.6)"/><rect x="-6.0" y="-6.0" width="12.0" height="12.0" fill="#fff" transform="translate(186.3 523.8) rotate(-6.7)"/><rect x="-5.5" y="-5.5" width="11.0" height="11.0" fill="#fff" transform="translate(207.6 518.9) rotate(7.6)"/><rect x="-5.0" y="-5.0" width="10.0" height="10.0" fill="#fff" transform="translate(229.0 519.7) rotate(-10.5)"/><rect x="-4.5" y="-4.5" width="9.1" height="9.1" fill="#fff" transform="translate(260.7 522.4) rotate(-18.0)"/><rect x="-4.0" y="-4.0" width="8.1" height="8.1" fill="#fff" transform="translate(277.3 517.8) rotate(-21.3)"/><rect x="-3.5" y="-3.5" width="7.1" height="7.1" fill="#fff" transform="translate(300.1 522.6) rotate(-4.8)"/><rect x="-3.0" y="-3.0" width="6.1" height="6.1" fill="#fff" transform="translate(331.4 529.2) rotate(-13.1)"/><rect x="-2.0" y="-2.0" width="4.1" height="4.1" fill="#fff" transform="translate(383.5 517.6) rotate(-14.5)"/><rect x="-1.5" y="-1.5" width="3.0" height="3.0" fill="#fff" transform="translate(411.3 519.5) rotate(-5.9)"/><rect x="-1.0" y="-1.0" width="2.0" height="2.0" fill="#fff" transform="translate(423.0 520.5) rotate(18.3)"/></mask></defs><rect width="512" height="512" rx="96" fill="#eef0ec"/><g fill="none" stroke="url(#stemg)" stroke-width="30" stroke-linecap="square" stroke-linejoin="miter" mask="url(#stemm)">
    <path d="M170 70 V442"/>
    <path d="M170 132 H320 A56 56 0 0 1 376 188 V262"/>
    <path d="M110 262 H286"/>
    <path d="M170 350 Q300 350 336 442"/>
    <path d="M236 70 H300" stroke-width="22"/>
  </g>
  <circle cx="380" cy="330" r="26" fill="url(#stemg)" mask="url(#stemm)"/></svg>
